<?xml version="1.0" encoding="utf-8"?>
<!-- Generator: Adobe Illustrator 21.0.2, SVG Export Plug-In . SVG Version: 6.00 Build 0)  -->
<svg version="1.1" id="Layer_1" xmlns="http://www.w3.org/2000/svg" xmlns:xlink="http://www.w3.org/1999/xlink" x="0px" y="0px"
	 viewBox="0 0 123.1 205.6" style="enable-background:new 0 0 123.1 205.6;" xml:space="preserve">
<style type="text/css">
	.st0{fill:none;}
</style>
<g>
	<path d="M44.1,176.4h36.4l0,0V192c0,6.6-5.4,12-12,12H56.1c-6.6,0-12-5.4-12-12V176.4L44.1,176.4z"/>
	<line class="st0" x1="41.3" y1="166.7" x2="82.7" y2="166.7"/>
	<line class="st0" x1="41.3" y1="158" x2="82.7" y2="158"/>
	<line class="st0" x1="41.3" y1="149.3" x2="82.7" y2="149.3"/>
	<path id="light" d="M121,60.4c0-29.7-22.9-53.9-52.9-57.9c-2-0.3-4-0.5-6-0.5c-2.3,0-4.7,0.2-7,0.5c-29,4-51.8,28.2-51.8,57.9
		c0.1,9.8,2.7,19.5,7.6,28.1l0,0l28.3,53h47l28.3-53l0,0C119,80.5,121,70.4,121,60.4z"/>
</g>
</svg>
